<svg width="216" height="260" viewBox="0 0 216 260" fill="none" xmlns="http://www.w3.org/2000/svg">
<g filter="url(#filter0_d_884_307)">
<path d="M210.996 71.4528V114.325L180.586 93.399L107.498 42.8717L34.4091 93.399L4 72.346V71.4528L107.498 0L210.996 71.4528Z" fill="#E6660E"/>
<path d="M164.261 147.502L107.498 186.673L50.734 147.502L19.6847 126.066L4 115.22L4 72.3486L34.4091 93.4017L50.734 104.63L81.7834 126.066L107.498 143.801L133.212 126.066L164.261 147.502Z" fill="url(#paint0_linear_884_307)"/>
<path d="M211.004 114.314V115.207L195.319 126.053L164.27 104.617L180.594 93.3887L211.004 114.314Z" fill="url(#paint1_linear_884_307)"/>
<path d="M19.6847 126.058L50.734 147.493L34.4091 158.722L4 137.669V136.903L19.6847 126.058Z" fill="#E6660E"/>
<path d="M210.972 136.911V179.783L180.563 158.73L164.238 147.502L133.189 126.066L107.475 108.33L81.7603 126.066L50.7109 104.63L107.475 65.3311L164.238 104.63L195.288 126.066L210.972 136.911Z" fill="#E6660E"/>
<path d="M210.996 179.782V180.547L107.498 252L4 180.547L4 137.676L34.4091 158.729L107.498 209.129L180.586 158.729L210.996 179.782Z" fill="url(#paint2_linear_884_307)"/>
</g>
<defs>
<filter id="filter0_d_884_307" x="0" y="0" width="215.004" height="260" filterUnits="userSpaceOnUse" color-interpolation-filters="sRGB">
<feFlood flood-opacity="0" result="BackgroundImageFix"/>
<feColorMatrix in="SourceAlpha" type="matrix" values="0 0 0 0 0 0 0 0 0 0 0 0 0 0 0 0 0 0 127 0" result="hardAlpha"/>
<feOffset dy="4"/>
<feGaussianBlur stdDeviation="2"/>
<feComposite in2="hardAlpha" operator="out"/>
<feColorMatrix type="matrix" values="0 0 0 0 0 0 0 0 0 0 0 0 0 0 0 0 0 0 0.25 0"/>
<feBlend mode="normal" in2="BackgroundImageFix" result="effect1_dropShadow_884_307"/>
<feBlend mode="normal" in="SourceGraphic" in2="effect1_dropShadow_884_307" result="shape"/>
</filter>
<linearGradient id="paint0_linear_884_307" x1="4" y1="129.511" x2="164.261" y2="129.511" gradientUnits="userSpaceOnUse">
<stop stop-color="#972A74"/>
<stop offset="1" stop-color="#F16E00"/>
</linearGradient>
<linearGradient id="paint1_linear_884_307" x1="164.27" y1="109.721" x2="211.004" y2="109.721" gradientUnits="userSpaceOnUse">
<stop stop-color="#972A74"/>
<stop offset="1" stop-color="#F16E00"/>
</linearGradient>
<linearGradient id="paint2_linear_884_307" x1="4" y1="194.838" x2="210.996" y2="194.838" gradientUnits="userSpaceOnUse">
<stop stop-color="#972A74"/>
<stop offset="1" stop-color="#F16E00"/>
</linearGradient>
</defs>
</svg>
